<svg width="20" height="20" viewBox="0 0 20 20" fill="none" xmlns="http://www.w3.org/2000/svg">
<path fill-rule="evenodd" clip-rule="evenodd" d="M9.99967 0.833344C15.0623 0.833344 19.1663 4.9374 19.1663 10C19.1663 15.0626 15.0623 19.1667 9.99967 19.1667C4.93706 19.1667 0.833008 15.0626 0.833008 10C0.833008 4.9374 4.93706 0.833344 9.99967 0.833344ZM8.95801 6.25834C8.15259 6.25834 7.49967 6.91126 7.49967 7.71668V12.1639C7.49967 12.4435 7.58007 12.7173 7.73129 12.9525C8.16682 13.63 9.06912 13.8262 9.74661 13.3906L13.2056 11.167C13.3813 11.054 13.5307 10.9046 13.6437 10.7289C14.0792 10.0514 13.8831 9.14911 13.2056 8.71357L9.74661 6.48996C9.51139 6.33874 9.23765 6.25834 8.95801 6.25834Z" fill="#FF7A00"/>
</svg>
